<?xml version="1.0" standalone="no"?>
<!DOCTYPE svg PUBLIC "-//W3C//DTD SVG 1.1//EN"
"http://www.w3.org/Graphics/SVG/1.1/DTD/svg11.dtd">

<svg width="429" height="313" view_box="0 0 429 313"
xmlns="http://www.w3.org/2000/svg"
xmlns:link="http://www.w3.org/1999/xlink">\n\n<desc>Généré par Mocodo 2.3.7 le Sun, 11 Sep 2022 04:15:08</desc>

<rect id="frame" x="0" y="0" width="429" height="313" fill="#ffffbf" stroke="none" stroke-width="0"/>

<!-- Association APPARTIENT -->
<line x1="279" y1="85" x2="161" y2="85" stroke="#f46d43" stroke-width="2"/>
<text x="212" y="102.0" fill="#3288bd" font-family="Verdana" font-size="12">1,N</text>
<line x1="46" y1="85" x2="161" y2="85" stroke="#f46d43" stroke-width="2"/>
<text x="88" y="102.0" fill="#3288bd" font-family="Verdana" font-size="12">0,N</text>
<g id="association-APPARTIENT">
	<path d="M 193 60 a 14 14 90 0 1 14 14 V 85 h -92 V 74 a 14 14 90 0 1 14 -14" fill="#fdae61" stroke="#fdae61" stroke-width="0"/>
	<path d="M 207 85.0 v 11 a 14 14 90 0 1 -14 14 H 129 a 14 14 90 0 1 -14 -14 V 85.0 H 92" fill="#fee08b" stroke="#fee08b" stroke-width="0"/>
	<rect x="115" y="60" width="92" height="50" fill="none" rx="14" stroke="#f46d43" stroke-width="2"/>
	<line x1="115" y1="85" x2="207" y2="85" stroke="#f46d43" stroke-width="1"/>
	<text x="122" y="77.7" fill="#000000" font-family="Verdana" font-size="12">APPARTIENT</text>
</g>

<!-- Association DEFINI -->
<line x1="380" y1="245" x2="279" y2="245" stroke="#f46d43" stroke-width="2"/>
<text x="313" y="262.0" fill="#3288bd" font-family="Verdana" font-size="12">1,N</text>
<line x1="279" y1="85" x2="279" y2="245" stroke="#f46d43" stroke-width="2"/>
<text x="284.0" y="178" fill="#3288bd" font-family="Verdana" font-size="12">1,N</text>
<g id="association-DEFINI">
	<path d="M 294 220 a 14 14 90 0 1 14 14 V 245 h -58 V 234 a 14 14 90 0 1 14 -14" fill="#fdae61" stroke="#fdae61" stroke-width="0"/>
	<path d="M 308 245.0 v 11 a 14 14 90 0 1 -14 14 H 264 a 14 14 90 0 1 -14 -14 V 245.0 H 58" fill="#fee08b" stroke="#fee08b" stroke-width="0"/>
	<rect x="250" y="220" width="58" height="50" fill="none" rx="14" stroke="#f46d43" stroke-width="2"/>
	<line x1="250" y1="245" x2="308" y2="245" stroke="#f46d43" stroke-width="1"/>
	<text x="257" y="237.7" fill="#000000" font-family="Verdana" font-size="12">DEFINI</text>
</g>

<!-- Association OBTIENT -->
<line x1="161" y1="245" x2="46" y2="245" stroke="#f46d43" stroke-width="2"/>
<text x="94" y="262.0" fill="#3288bd" font-family="Verdana" font-size="12">1,N</text>
<line x1="46" y1="85" x2="46" y2="245" stroke="#f46d43" stroke-width="2"/>
<text x="51.0" y="161" fill="#3288bd" font-family="Verdana" font-size="12">1,1</text>
<g id="association-OBTIENT">
	<path d="M 67 220 a 14 14 90 0 1 14 14 V 245 h -70 V 234 a 14 14 90 0 1 14 -14" fill="#fdae61" stroke="#fdae61" stroke-width="0"/>
	<path d="M 81 245.0 v 11 a 14 14 90 0 1 -14 14 H 25 a 14 14 90 0 1 -14 -14 V 245.0 H 70" fill="#fee08b" stroke="#fee08b" stroke-width="0"/>
	<rect x="11" y="220" width="70" height="50" fill="none" rx="14" stroke="#f46d43" stroke-width="2"/>
	<line x1="11" y1="245" x2="81" y2="245" stroke="#f46d43" stroke-width="1"/>
	<text x="18" y="237.7" fill="#000000" font-family="Verdana" font-size="12">OBTIENT</text>
</g>

<!-- Entity PRODUCT -->
<g id="entity-PRODUCT">
	<g id="frame-PRODUCT">
		<rect x="239" y="9" width="80" height="25" fill="#abdda4" stroke="#abdda4" stroke-width="0"/>
		<rect x="239" y="34.0" width="80" height="127" fill="#e6f598" stroke="#e6f598" stroke-width="0"/>
		<rect x="239" y="9" width="80" height="152" fill="none" stroke="#66c2a5" stroke-width="2"/>
		<line x1="239" y1="34" x2="319" y2="34" stroke="#66c2a5" stroke-width="1"/>
	</g>
	<text x="249" y="26.7" fill="#000000" font-family="Verdana" font-size="12">PRODUCT</text>
	<text x="244" y="51.7" fill="#000000" font-family="Verdana" font-size="12">title</text>
	<line x1="244" y1="54" x2="268" y2="54" stroke="#000000" stroke-width="1"/>
	<text x="244" y="68.7" fill="#000000" font-family="Verdana" font-size="12">designation</text>
	<text x="244" y="85.8" fill="#000000" font-family="Verdana" font-size="12">categories</text>
	<text x="244" y="102.8" fill="#000000" font-family="Verdana" font-size="12">date_limit</text>
	<text x="244" y="119.8" fill="#000000" font-family="Verdana" font-size="12">alert</text>
	<text x="244" y="136.8" fill="#000000" font-family="Verdana" font-size="12">createdAt</text>
	<text x="244" y="153.8" fill="#000000" font-family="Verdana" font-size="12">updatedAt</text>
</g>

<!-- Entity TAG -->
<g id="entity-TAG">
	<g id="frame-TAG">
		<rect x="340" y="186" width="80" height="25" fill="#abdda4" stroke="#abdda4" stroke-width="0"/>
		<rect x="340" y="211.0" width="80" height="93" fill="#e6f598" stroke="#e6f598" stroke-width="0"/>
		<rect x="340" y="186" width="80" height="118" fill="none" stroke="#66c2a5" stroke-width="2"/>
		<line x1="340" y1="211" x2="420" y2="211" stroke="#66c2a5" stroke-width="1"/>
	</g>
	<text x="367" y="203.7" fill="#000000" font-family="Verdana" font-size="12">TAG</text>
	<text x="345" y="228.7" fill="#000000" font-family="Verdana" font-size="12">name</text>
	<line x1="345" y1="231" x2="380" y2="231" stroke="#000000" stroke-width="1"/>
	<text x="345" y="245.8" fill="#000000" font-family="Verdana" font-size="12">designation</text>
	<text x="345" y="262.8" fill="#000000" font-family="Verdana" font-size="12">color</text>
	<text x="345" y="279.8" fill="#000000" font-family="Verdana" font-size="12">createdAt</text>
	<text x="345" y="296.8" fill="#000000" font-family="Verdana" font-size="12">updatedAT</text>
</g>

<!-- Entity ROLE -->
<g id="entity-ROLE">
	<g id="frame-ROLE">
		<rect x="121" y="194" width="80" height="25" fill="#abdda4" stroke="#abdda4" stroke-width="0"/>
		<rect x="121" y="219.0" width="80" height="77" fill="#e6f598" stroke="#e6f598" stroke-width="0"/>
		<rect x="121" y="194" width="80" height="102" fill="none" stroke="#66c2a5" stroke-width="2"/>
		<line x1="121" y1="219" x2="201" y2="219" stroke="#66c2a5" stroke-width="1"/>
	</g>
	<text x="144" y="211.7" fill="#000000" font-family="Verdana" font-size="12">ROLE</text>
	<text x="126" y="236.7" fill="#000000" font-family="Verdana" font-size="12">name</text>
	<line x1="126" y1="239" x2="161" y2="239" stroke="#000000" stroke-width="1"/>
	<text x="126" y="253.8" fill="#000000" font-family="Verdana" font-size="12">designation</text>
	<text x="126" y="270.8" fill="#000000" font-family="Verdana" font-size="12">createdAt</text>
	<text x="126" y="287.8" fill="#000000" font-family="Verdana" font-size="12">updatedAt</text>
</g>

<!-- Entity USER -->
<g id="entity-USER">
	<g id="frame-USER">
		<rect x="9" y="26" width="74" height="25" fill="#abdda4" stroke="#abdda4" stroke-width="0"/>
		<rect x="9" y="51.0" width="74" height="93" fill="#e6f598" stroke="#e6f598" stroke-width="0"/>
		<rect x="9" y="26" width="74" height="118" fill="none" stroke="#66c2a5" stroke-width="2"/>
		<line x1="9" y1="51" x2="83" y2="51" stroke="#66c2a5" stroke-width="1"/>
	</g>
	<text x="29" y="43.7" fill="#000000" font-family="Verdana" font-size="12">USER</text>
	<text x="14" y="68.7" fill="#000000" font-family="Verdana" font-size="12">username</text>
	<line x1="14" y1="71" x2="75" y2="71" stroke="#000000" stroke-width="1"/>
	<text x="14" y="85.8" fill="#000000" font-family="Verdana" font-size="12">email</text>
	<text x="14" y="102.8" fill="#000000" font-family="Verdana" font-size="12">password</text>
	<text x="14" y="119.8" fill="#000000" font-family="Verdana" font-size="12">createdAt</text>
	<text x="14" y="136.8" fill="#000000" font-family="Verdana" font-size="12">updatedAt</text>
</g>
</svg>